<svg width="64" height="64" viewBox="0 0 64 64" fill="none" xmlns="http://www.w3.org/2000/svg">
	<rect x="26" y="10" width="22" height="28" rx="8" fill="#FFD229"/>
	<path d="M31 32C31 28.686 33.686 26 37 26H46C49.314 26 52 28.686 52 32V48C52 51.314 49.314 54 46 54H39L31 46V32Z" fill="#8FA9F8"/>
	<path d="M28 8C38.493 8 47 16.507 47 27C47 38.655 32.307 49.005 28 52C23.693 49.005 9 38.655 9 27C9 16.507 17.507 8 28 8Z" fill="#0B53B6" stroke="#0A0A0A" stroke-width="2.5"/>
	<path d="M28 15C29.104 15 30 15.896 30 17V31C30 32.104 29.104 33 28 33C26.896 33 26 32.104 26 31V17C26 15.896 26.896 15 28 15Z" fill="#FFD229"/>
	<path d="M20 20C21.104 20 22 20.896 22 22V30.25L27.2 35.15C28 35.903 28.038 37.169 27.285 37.969C26.532 38.768 25.266 38.806 24.467 38.053L18.629 32.557C18.223 32.176 18 31.647 18 31.092V22C18 20.896 18.896 20 20 20Z" fill="#FFD229"/>
	<path d="M36 20C37.104 20 38 20.896 38 22V31.092C38 31.647 37.777 32.176 37.371 32.557L31.533 38.053C30.734 38.806 29.468 38.768 28.715 37.969C27.962 37.169 28 35.903 28.8 35.15L34 30.25V22C34 20.896 34.896 20 36 20Z" fill="#FFD229"/>
	<path d="M23 26.5L28 22.5L33 26.5" stroke="#FFD229" stroke-width="2.6" stroke-linecap="round" stroke-linejoin="round"/>
	<path d="M24 31H32" stroke="#FFD229" stroke-width="2.6" stroke-linecap="round"/>
</svg>
